<?xml version="1.0" encoding="UTF-8" standalone="no"?>
<!-- Created with Inkscape (http://www.inkscape.org/) -->

<svg
   version="1.1"
   id="svg1"
   width="569"
   height="530"
   viewBox="0 0 569 530"
   sodipodi:docname="aldc-4couleurs.svg"
   inkscape:version="1.4.2 (2aeb623e1d, 2025-05-12)"
   inkscape:export-filename="../3b0fe229/aldc-4couleurs.pdf"
   inkscape:export-xdpi="163"
   inkscape:export-ydpi="163"
   xmlns:inkscape="http://www.inkscape.org/namespaces/inkscape"
   xmlns:sodipodi="http://sodipodi.sourceforge.net/DTD/sodipodi-0.dtd"
   xmlns="http://www.w3.org/2000/svg"
   xmlns:svg="http://www.w3.org/2000/svg">
  <defs
     id="defs1">
    <clipPath
       clipPathUnits="userSpaceOnUse"
       id="clipPath45">
      <path
         id="path45"
         style="stroke-width:0.1;stroke-linecap:square;paint-order:markers fill stroke;stop-color:#000000"
         d="m -880.82767,-187.29769 h 1640.84 v 73.28155 h -1640.84 z" />
    </clipPath>
    <clipPath
       clipPathUnits="userSpaceOnUse"
       id="clipPath41">
      <path
         id="path41"
         style="stroke-width:0.1;stroke-linecap:square;paint-order:markers fill stroke;stop-color:#000000"
         d="m -880.82767,-187.29769 h 1640.84 v 73.28155 h -1640.84 z" />
    </clipPath>
    <clipPath
       clipPathUnits="userSpaceOnUse"
       id="clipPath39">
      <path
         id="path39"
         style="stroke-width:0.1;stroke-linecap:square;paint-order:markers fill stroke;stop-color:#000000"
         d="m -880.82767,-187.29769 h 1640.84 v 73.28155 h -1640.84 z" />
    </clipPath>
    <clipPath
       clipPathUnits="userSpaceOnUse"
       id="clipPath37">
      <path
         id="path37"
         style="stroke-width:0.1;stroke-linecap:square;paint-order:markers fill stroke;stop-color:#000000"
         d="m -880.82767,-187.29769 h 1640.84 v 73.28155 h -1640.84 z" />
    </clipPath>
    <clipPath
       clipPathUnits="userSpaceOnUse"
       id="clipPath35">
      <path
         id="path35"
         style="stroke-width:0.1;stroke-linecap:square;paint-order:markers fill stroke;stop-color:#000000"
         d="m -880.82767,-187.29769 h 1640.84 v 73.28155 h -1640.84 z" />
    </clipPath>
    <linearGradient
       id="swatch34"
       inkscape:swatch="solid">
      <stop
         style="stop-color:#000000;stop-opacity:1;"
         offset="0"
         id="stop35" />
    </linearGradient>
    <clipPath
       clipPathUnits="userSpaceOnUse"
       id="clipPath30">
      <path
         id="path30"
         style="stroke-width:0.1;stroke-linecap:square;paint-order:markers fill stroke;stop-color:#000000"
         d="m -880.82767,-187.29769 h 1640.84 v 73.28155 h -1640.84 z" />
    </clipPath>
    <clipPath
       clipPathUnits="userSpaceOnUse"
       id="clipPath27">
      <path
         id="path27"
         style="stroke-width:0.1;stroke-linecap:square;paint-order:markers fill stroke;stop-color:#000000"
         d="m -880.82767,-187.29769 h 1640.84 v 73.28155 h -1640.84 z" />
    </clipPath>
    <clipPath
       clipPathUnits="userSpaceOnUse"
       id="clipPath52">
      <path
         id="path52"
         style="stroke-width:0.1;stroke-linecap:square;paint-order:markers fill stroke;stop-color:#000000"
         d="m -880.82767,-187.29769 h 1640.84 v 73.28155 h -1640.84 z" />
    </clipPath>
  </defs>
  <sodipodi:namedview
     id="namedview1"
     pagecolor="#ffffff"
     bordercolor="#666666"
     borderopacity="1.0"
     inkscape:showpageshadow="2"
     inkscape:pageopacity="0.0"
     inkscape:pagecheckerboard="0"
     inkscape:deskcolor="#d1d1d1"
     inkscape:zoom="1.4142136"
     inkscape:cx="276.12519"
     inkscape:cy="217.43533"
     inkscape:window-width="1920"
     inkscape:window-height="1052"
     inkscape:window-x="0"
     inkscape:window-y="0"
     inkscape:window-maximized="1"
     inkscape:current-layer="g1" />
  <g
     inkscape:groupmode="layer"
     inkscape:label="Image"
     id="g1"
     style="display:inline">
    <path
       style="display:inline;fill:#ff7f2a;stroke:none;stroke-width:1px;stroke-linecap:butt;stroke-linejoin:miter;stroke-opacity:1"
       d="m 38,295.75 -0.25,14.125 c 2.40667,0.10849 5.098006,1.34654 5.198223,4.20343 l -0.183058,23.71447 c 0.05957,3.14389 -1.592146,3.9613 -4.015165,5.0821 2.4842,0.7795 4.209673,1.47674 4.265165,4.01517 0.09345,6.65763 0.03156,20.63253 0.03661,26.97334 0.121246,1.74244 0.299016,4.48335 -5.176777,4.38649 v 13.625 l 43.75,-1.625 0.125,-33.625 -9.625,-0.25 V 370.5 c 0.190135,4.3195 -1.93443,7.18866 -5.75,7.375 l -5.234835,0.0518 C 59.072459,377.80676 58.845924,376.26225 58.75,374.125 l 0.323223,-27.58579 c -0.155838,-2.91396 1.439263,-3.11496 3.609835,-4.13388 -2.261211,-0.88776 -3.668053,-1.48933 -3.911611,-4.53033 L 58.661612,312.84099 C 58.426634,310.3337 60.670029,310.09795 63.75,310.25 v -14.625 z"
       id="path12227"
       sodipodi:nodetypes="ccccccccccccccccccccccc" />
    <path
       style="display:inline;fill:#ff7f2a;stroke:none;stroke-width:1px;stroke-linecap:butt;stroke-linejoin:miter;stroke-opacity:1"
       d="M 80,271 C 79.727632,165.60628 171.4222,66.281508 287.5,65.5 c 105.83967,-0.726528 210.27444,73.19086 209.25,208 l -11.5,-0.875 C 484.57417,144.57653 386.0685,77.748004 288,78 163.92867,78.003691 90.760175,185.67784 90.640263,270.51677 Z"
       id="path12228"
       sodipodi:nodetypes="ccccccc" />
    <path
       id="path12229"
       style="display:inline;fill:#ff7f2a;stroke:none;stroke-width:1px;stroke-linecap:butt;stroke-linejoin:miter;stroke-opacity:1"
       d="M 129.60352,295.36523 87,295.75 l -0.25,13.5 c 3.499656,-0.2034 5.484965,0.93929 4.75,4.5 l 0.5,22.5 c -0.108063,2.91667 -1.393485,3.83333 -4.125,5.25 2.962277,1.75549 4.210555,1.90347 3.875,4.75 l 0.5,26.50912 c 0.218785,2.40718 -1.129835,3.85079 -4,3.99088 v 13 l 41.125,-1.125 -0.125,-27.99023 -9.5,-0.13477 0.25,12 c -0.58648,2.40601 -1.96038,4.46205 -6.75,5 -3.23529,0.38541 -6.02201,-0.58153 -6.16161,-3.91682 L 107,348 c 2.62718,0.0126 7.22073,-1.20975 6.75,3.5 l 0.043,4.57227 L 120.25,356 120.5,328.25 h -6.25 l 0,4.625 c 0.0836,2.86615 -4.10994,3.03528 -7.25,2.75 l 0.25,-26.625 9,0.25 c 1.41454,0.93367 3.0202,0.33837 4,4.75 l 0.25,10.25 h 9.25 z"
       sodipodi:nodetypes="cccccccccccccccccccccccccccccc" />
    <path
       style="display:inline;fill:#ff7f2a;stroke:none;stroke-width:1px;stroke-linecap:butt;stroke-linejoin:miter;stroke-opacity:1"
       d="m 53,420.5 59.75,2.25 10.5,6 -58.75,1 z"
       id="path12230" />
    <path
       style="display:inline;fill:#ff7f2a;stroke:none;stroke-width:1px;stroke-linecap:butt;stroke-linejoin:miter;stroke-opacity:1"
       d="M 99.878833,270.11479 C 98.380671,221.05433 144.97059,90.243988 286.51213,89.363222 408.82799,89.530335 471.50383,174.42574 473.70609,270.99867 l -80.48975,-3.27297 c 0.68541,-62.03531 -50.73066,-98.68489 -108.95941,-99.08073 -58.19801,0.16644 -112.57738,42.69192 -110.30866,99.3485 z"
       id="path5"
       sodipodi:nodetypes="ccccccc" />
    <path
       style="display:inline;fill:#ff7f2a;stroke:none;stroke-width:1px;stroke-linecap:butt;stroke-linejoin:miter;stroke-opacity:1"
       d="m 134.35029,295.57063 -0.17678,12.72793 c 2.61469,0.0474 4.59041,0.53242 5.3033,4.59619 l 4.41942,23.86485 c 0.5055,3.1843 -1.34225,3.60099 -2.74004,5.03814 1.96316,0.80477 3.70681,0.16199 4.15425,3.62392 l 6.54074,42.77996 16.54747,-0.17677 6.07995,-42.42641 c 0.6098,-2.886 2.4789,-2.60141 4.33103,-3.62392 -1.52112,-1.31945 -3.06101,-2.50192 -2.56326,-5.03814 l 4.41941,-25.45584 c 0.49213,-3.90148 3.16275,-3.03355 5.19975,-3.15165 l -0.33837,-12.67615 -20.89626,-0.10355 0.15533,12.76193 c 2.46813,0.0199 4.68607,1.06756 3.85876,4.41942 l -7.51041,41.68008 -6.10508,-42.02475 c -1.00834,-3.46979 1.16761,-4.06982 4.08731,-4.08731 l -0.3321,-12.69759 z"
       id="path1"
       sodipodi:nodetypes="cccccccccccccccccccccc" />
    <path
       style="display:inline;fill:#1a1a1a;stroke:none;stroke-width:2;stroke-linecap:butt;stroke-linejoin:miter;stroke-dasharray:none;stroke-opacity:1"
       d="m 200.41161,173.70711 c -4.96043,-0.62445 -20.95189,-8.70851 -39.368,-8.66921 -14.00339,0.0299 -29.85609,5.16673 -40.72038,19.4621 -15.25012,22.2337 -1.89978,44.01361 3.67938,50.08839 11.06827,11.40752 25.21453,14.01161 38.46706,14.41161 22.92882,-0.42626 56.18568,-15.15267 81.35355,-21.88649 43.0135,-13.49872 80.84454,-20.79641 117,-21.08578 11.91649,-0.27923 50.5216,-6.63918 82.23744,-31.20451 8.8331,-9.72578 18.71669,-18.60139 19.58579,-37.93934 -0.0834,-11.0105 -14.1397,-25.40897 -41.14645,-25.14644 -40.08816,-0.40612 -49.0865,5.03972 -61.35355,9 C 349.74626,92.541042 341.24582,73.355287 335.5,73 c -5.92112,0.244068 -9.71673,5.822136 -20,5.5 -21.50335,0.445562 -30.99124,-12.11403 -44,-12.5 -6.93291,-0.221509 -12.23376,10.527071 -21,10.5 -13.48414,0.427239 -21.03658,-4.145709 -30,-2 -10.57121,3.740911 -18.29942,15.526672 -18.5,21.5 -1.8075,26.8276 2.89731,49.54938 -1.58839,77.70711 z"
       id="path6"
       sodipodi:nodetypes="cscccccccccccccccc" />
    <path
       style="display:inline;fill:#ff7f2a;stroke:none;stroke-width:1px;stroke-linecap:butt;stroke-linejoin:miter;stroke-opacity:1"
       d="m 262.51339,272.41289 -0.17677,6.18718 17.14734,-0.17678 0.0214,-5.6783 c -2.56975,-0.1062 -4.05065,-1.48715 -3.22303,-3.45343 3.13047,-9.30131 5.35055,-17.0701 9.19055,-26.2861 2.73899,9.78797 4.96656,17.25033 7.33178,26.72361 0.63512,2.40604 -1.49661,3.24601 -3.15608,3.21414 l 0.004,5.36581 16.87773,0.11427 -0.35355,-5.83363 c -1.45326,0.0309 -2.62403,-0.99793 -3.30698,-3.06954 l -2.64093,-10.54042 c -0.51161,-1.72554 1.99853,-3.44484 3.20343,-4.3802 -1.33246,-0.19753 -4.32585,-0.23442 -4.91942,-2.33028 -1.02274,-4.16287 -1.6636,-6.13295 -2.52665,-9.99048 -0.3794,-2.15789 0.84642,-2.62217 2.76593,-2.56954 l -0.0411,-4.77297 -25.8094,-0.0625 0.0411,4.48192 c 2.25597,0.13388 4.13812,0.82053 3.16053,2.94454 l -3.77925,11.1092 c -0.34066,1.24604 -3.08233,1.66902 -4.83992,1.97044 1.22268,1.07359 3.51751,3.01904 2.92571,4.54625 l -2.67754,9.40838 c -0.66343,2.64068 -3.10432,3.8084 -5.21936,3.87393 z"
       id="path3"
       sodipodi:nodetypes="ccccccccccccccccccccccccccc" />
    <path
       style="display:inline;fill:#ff7f2a;stroke:none;stroke-width:1px;stroke-linecap:butt;stroke-linejoin:miter;stroke-opacity:1"
       d="m 71.5,281.75 6.25,-5.25 171,-10.5 -28.5,7.75 z"
       id="path2" />
    <path
       style="display:inline;fill:#ff7f2a;stroke:none;stroke-width:1px;stroke-linecap:butt;stroke-linejoin:miter;stroke-opacity:1"
       d="m 277.4375,259.6875 h 14.6875 l 0.6875,6.75 -16.5,-0.0625 z"
       id="path4" />
    <path
       style="display:inline;fill:#ffeeaa;stroke:none;stroke-width:1px;stroke-linecap:butt;stroke-linejoin:miter;stroke-opacity:1"
       d="m 203.05805,179.64905 c 2.84818,-18.66243 1.78249,-45.79858 1.82583,-59.88129 C 203.50147,97.172405 202.98582,86.579738 219.5,77.5 c -0.2603,2.768678 -0.45996,4.914217 0,7.525127 1.16611,3.640016 5.92679,7.37648 10.5,7.474873 13.73866,0.11693 33.74368,-23.578967 42.5,-24 3.08856,0.04021 5.61725,2.264229 5.8125,8.5 0.589,5.543174 12.81488,21.117623 36.6875,23.43934 9.25667,1.23244 20.23858,-2.520611 21.5,-6.43934 -3.55724,-7.309744 -5.51206,-11.414652 -7.20711,-15 0.1474,-2.375833 2.56027,-3.258539 5.70711,-3 6.34532,0.930873 15.95709,24.41256 20.4375,40.25 l -149.07181,63.51629 z"
       id="path7"
       sodipodi:nodetypes="cccccccccccccc" />
    <path
       style="display:inline;fill:#ff7f2a;stroke:none;stroke-width:1px;stroke-linecap:butt;stroke-linejoin:miter;stroke-opacity:1"
       d="m 332.16341,97.757513 c 0.19291,-4.606812 -3.38093,-11.55154 -2.85876,-18.945437 3.68551,0.820501 7.50064,1.538821 8.51562,8.869165 0.6892,8.409373 -3.11177,9.407726 -5.65686,10.076272 z"
       id="path8"
       sodipodi:nodetypes="cccc" />
    <path
       style="display:inline;fill:#d3bc5f;fill-opacity:1;stroke:none;stroke-width:1px;stroke-linecap:butt;stroke-linejoin:miter;stroke-opacity:1"
       d="m 206.38388,179.70711 c 1.52785,-9.66482 3.9825,-23.33058 3.11612,-43.70711 -0.9972,-16.56528 -2.79799,-31.81295 5.5,-46 3.14769,3.920524 9.54603,6.110778 13.25,6.25 14.00677,-0.279209 33.85454,-17.797871 41.45711,-18.81066 5.8338,0.384841 3.91622,15.582184 39.75,27 16.15069,3.9005 35.04357,3.17173 43.409,8.61611 2.23608,1.50557 4.00364,5.49665 3.88389,7.94455 -47.78936,21.56977 -52.00144,26.72825 -74.25,45.25 -32.10726,7.85059 -58.61766,13.86728 -76.11612,13.45711 z"
       id="path9"
       sodipodi:nodetypes="cccccccccc" />
    <path
       style="fill:#ff7f2a;stroke:none;stroke-width:1px;stroke-linecap:butt;stroke-linejoin:miter;stroke-opacity:1"
       d="m 188.16161,295.57323 0.21339,12.8321 c 1.54109,0.11098 3.70524,0.65524 3.64017,3.80178 L 191.875,337 c 0.0496,2.70239 -1.8153,3.827 -3.875,4.75 2.01759,0.9849 4.15499,1.47832 4.08839,3.82322 l 0.23483,25.63389 c 0.15458,2.69546 -1.95141,4.82235 -4.82322,4.66789 l 0.125,11.25 25.375,0.125 -0.25,-11.5 c -2.16105,-0.0587 -4.23876,-1.40713 -4.25,-4.375 l 0.0366,-25.86872 c -0.0495,-2.6505 1.9875,-3.56428 3.89017,-4.13128 -2.34327,-0.66484 -3.76854,-1.86451 -3.83839,-4.25 l 0.0366,-25.375 c -0.008,-2.43536 1.40512,-4.05239 3.97855,-4.00888 l -0.40535,-12.43306 z"
       id="path10"
       sodipodi:nodetypes="ccccccccccccccccccc" />
    <path
       style="fill:#ff7f2a;stroke:none;stroke-width:1px;stroke-linecap:butt;stroke-linejoin:miter;stroke-opacity:1"
       d="m 256,324.375 0.17678,-29.45711 -8.75,0.0884 L 247.5,300 c -1.61424,-3.71909 -7.53388,-5.07733 -12.03293,-4.93934 -13.26016,-0.0351 -17.90858,11.09048 -17.84207,23.43934 -0.0621,12.93888 6.63935,21.63837 13.26517,28.03661 1.21854,1.7374 -0.24374,3.79916 -1.41162,5.97856 2.42793,-1.09244 4.82038,-2.1139 6.09467,-0.89905 5.3301,4.12519 8.60293,9.55554 8.62761,14.00888 0.0924,5.39253 -2.01558,10.66249 -7.20083,10.75 -6.4071,0.0698 -9.17989,-3.75857 -9.56694,-9.38128 l -0.0518,-8.03033 -9.35983,-0.125 0.0732,28.22855 9.01516,0.0215 0.14017,-4.71339 c 2.89942,3.98565 6.63634,4.53293 10.47855,4.7474 13.90776,-0.0649 20.89416,-5.86292 20.89645,-21.2474 0.14517,-11.99431 -2.70533,-19.67032 -10.4545,-26.00888 -1.20707,-1.08101 0.22052,-3.47935 1.27144,-5.68934 -2.35994,0.99995 -5.54363,2.96855 -7.03401,1.35983 -5.52895,-5.06709 -11.17992,-11.86832 -11.28293,-17.41161 0.0303,-4.91471 1.35868,-11.83872 7.78033,-11.67678 4.70367,0.11977 7.34953,5.58611 7.21967,10.55178 l -0.0884,7.35355 z"
       id="path11"
       sodipodi:nodetypes="ccccccccccccccccccccccccccc" />
    <path
       style="display:inline;fill:#ff7f2a;stroke:none;stroke-width:1px;stroke-linecap:butt;stroke-linejoin:miter;stroke-opacity:1"
       d="m 489.36209,325.58961 0.59835,-29.45157 -8.75037,-0.0368 0.002,4.99424 c -1.56085,-3.74181 -7.46044,-5.18463 -11.96101,-5.11104 -13.2583,-0.22488 -18.06547,10.83304 -18.1757,23.18158 -0.24727,12.93667 6.32899,21.73118 12.86256,28.22359 1.19355,1.75466 -0.29809,3.79528 -1.49704,5.95774 2.44332,-1.05758 4.85014,-2.04469 6.10691,-0.81173 5.27052,4.20105 8.4653,9.67769 8.42624,14.13092 0.0152,5.3933 -2.16797,10.63256 -7.35394,10.64585 -6.40745,-0.0219 -9.12516,-3.88957 -9.4317,-9.51724 l 0.0631,-8.03025 -9.35708,-0.25894 -0.33081,28.2267 9.01393,0.15052 0.20761,-4.7109 c 2.84208,4.02674 6.57079,4.62744 10.40954,4.89688 13.90726,0.13415 20.97592,-5.56329 21.19839,-20.94616 0.31682,-11.991 -2.42353,-19.70702 -10.08119,-26.15584 -1.19148,-1.09817 0.27029,-3.47583 1.35273,-5.67056 -2.37401,0.96608 -5.58555,2.88891 -7.05275,1.25903 -5.45586,-5.1457 -11.00892,-12.02711 -11.03258,-17.57131 0.10063,-4.91377 1.52797,-11.81806 7.94665,-11.56423 4.70147,0.18707 7.26883,5.69072 7.06791,10.65402 l -0.19363,7.35153 z"
       id="path11-9"
       sodipodi:nodetypes="ccccccccccccccccccccccccccc" />
    <path
       style="display:inline;fill:#ff7f2a;stroke:none;stroke-width:1px;stroke-linecap:butt;stroke-linejoin:miter;stroke-opacity:1"
       d="m 291.23961,305.47013 -0.16912,30.28028 c -0.0919,2.03782 -1.96271,2.66965 -4.11686,3.74916 2.43478,1.08377 4.13622,2.45733 4.1342,4.50103 l 0.0634,30.14728 14.4957,-0.17678 0.17677,-68.58936 z"
       id="path13"
       sodipodi:nodetypes="cccccccc" />
    <path
       style="display:inline;fill:#ff7f2a;stroke:none;stroke-width:1px;stroke-linecap:butt;stroke-linejoin:miter;stroke-opacity:1"
       d="m 285.05806,386.86872 11.81694,0.0884 V 383.25 c 3.15261,4.45483 8.28878,3.5257 13,3.75 14.97182,-0.0253 23.04621,-5.74366 23.1705,-18.02405 l 0.0214,-24.90273 c 0.0544,-2.37303 1.75618,-3.44773 4.09467,-4.51516 -2.40679,-0.72658 -4.02406,-1.32013 -4.0795,-3.78661 L 333.125,317.625 c -0.0467,-14.78302 -4.60817,-22.44204 -15.375,-23 -7.17327,0.0573 -15.00815,-1.09827 -19.5,3.875 l -0.0884,-3.84727 -12.92049,0.14016 0.15533,10.92678 c 2.61641,0.0426 5.8052,1.81225 5.89277,5.00888 l 14.34834,0.16789 c 0.3427,-2.01092 0.67755,-4.25815 5.23744,-4.27145 7.19186,0.11928 6.81112,3.666 7,6 l -0.14277,22.71967 c -0.0458,2.81611 -1.54239,3.49742 -3.98223,4.69822 2.6586,1.06826 4.04103,1.96055 4.07322,5.18566 L 318,368.125 c -0.20351,2.88542 1.54056,6.51551 -6.25,6.5 -2.47197,0.0245 -6.12579,-1.52294 -6.20083,-5.23376 l -14.159,0.0392 c 0.14634,3.24484 -2.7593,4.58675 -6.26517,4.44454 z"
       id="path12"
       sodipodi:nodetypes="ccccccccccccccccccccccccccc" />
    <path
       sodipodi:type="star"
       style="fill:#ffe680;fill-opacity:1;fill-rule:evenodd;stroke:none;stroke-width:2;stroke-dasharray:none;stroke-opacity:1"
       id="path15"
       inkscape:flatsided="false"
       sodipodi:sides="5"
       sodipodi:cx="535.98694"
       sodipodi:cy="226.27417"
       sodipodi:r1="11.879604"
       sodipodi:r2="5.0629239"
       sodipodi:arg1="0.93324753"
       sodipodi:arg2="1.5086639"
       inkscape:rounded="0"
       inkscape:randomized="0"
       d="m 543.05801,235.82011 -6.7567,-4.49279 -7.20802,4.62169 2.18496,-7.81435 -6.62289,-5.42705 8.10708,-0.33675 3.11485,-7.97579 2.82549,7.60623 8.54797,0.49774 -6.36083,5.03766 z"
       inkscape:transform-center-x="-0.39991283"
       inkscape:transform-center-y="-1.8202269"
       transform="matrix(1.9310053,0,0,1.9677881,-953.90994,-202.89282)" />
    <path
       sodipodi:type="star"
       style="display:inline;fill:#ffe680;fill-opacity:1;fill-rule:evenodd;stroke:none;stroke-width:2;stroke-dasharray:none;stroke-opacity:1"
       id="path15-3"
       inkscape:flatsided="false"
       sodipodi:sides="5"
       sodipodi:cx="535.98694"
       sodipodi:cy="226.27417"
       sodipodi:r1="11.879604"
       sodipodi:r2="5.0629239"
       sodipodi:arg1="0.93324753"
       sodipodi:arg2="1.5086639"
       inkscape:rounded="0"
       inkscape:randomized="0"
       d="m 543.05801,235.82011 -6.7567,-4.49279 -7.20802,4.62169 2.18496,-7.81435 -6.62289,-5.42705 8.10708,-0.33675 3.11485,-7.97579 2.82549,7.60623 8.54797,0.49774 -6.36083,5.03766 z"
       inkscape:transform-center-x="-0.39991283"
       inkscape:transform-center-y="-1.8202269"
       transform="matrix(1.9310053,0,0,1.9677881,-538.7303,-202.58256)" />
    <path
       style="fill:#ff7f2a;stroke:none;stroke-width:1px;stroke-linecap:butt;stroke-linejoin:miter;stroke-opacity:1"
       d="m 200.47379,411.33731 0.14017,8.69822 c 3.12949,0.15505 5.70412,2.68564 5.75,6.125 l 0.10983,10.59467 c 0.045,1.66758 -1.02653,2.46297 -2.96966,3.28033 2.00798,0.78201 2.90841,1.43029 2.9375,3.2955 l -0.0777,13.95006 c -0.002,2.63476 -3.29493,4.6918 -5.82767,4.71469 l -0.0473,7.28975 c 6.68381,-0.0626 16.75537,-4.49994 16.76333,-11.82583 l 0.142,-14.23223 c -0.023,-1.53767 1.97749,-2.62796 3.43306,-3.125 -1.54624,-0.66274 -3.58496,-1.50468 -3.64645,-3.2045 l -0.0669,-11.36244 c -0.0802,-12.16887 -10.72993,-14.08127 -16.64017,-14.19822 z"
       id="path16"
       sodipodi:nodetypes="ccccccccccccccc"
       inkscape:transform-center-x="78.782193"
       inkscape:transform-center-y="-16.21392" />
    <path
       style="display:inline;fill:#ff7f2a;stroke:none;stroke-width:1px;stroke-linecap:butt;stroke-linejoin:miter;stroke-opacity:1"
       d="m 200.53724,411.26515 0.125,8.875 c -3.12949,0.15505 -5.70412,2.68564 -5.75,6.125 l -0.10983,10.59467 c -0.045,1.66758 1.02653,2.46297 2.96966,3.28033 -2.00798,0.78201 -2.90841,1.43029 -2.9375,3.2955 l -0.0107,13.95006 c 0.002,2.63476 3.20654,4.55922 5.73928,4.58211 l 0.22411,7.42233 c -6.68381,-0.0626 -16.75537,-4.49994 -16.76333,-11.82583 l -0.142,-14.23223 c 0.023,-1.53767 -1.97749,-2.62796 -3.43306,-3.125 1.54624,-0.66274 3.58496,-1.50468 3.64645,-3.2045 l 0.0669,-11.36244 c 0.0802,-12.16887 10.46476,-14.25805 16.375,-14.375 z"
       id="path16-1"
       sodipodi:nodetypes="cccccccccccccccc"
       inkscape:transform-center-x="98.814698"
       inkscape:transform-center-y="-16.19769" />
    <path
       style="fill:#ff7f2a;stroke:none;stroke-width:1px;stroke-linecap:butt;stroke-linejoin:miter;stroke-opacity:1"
       d="m 356.82376,468.36985 19.97577,0.17678 -1e-5,-6.62913 c -2.29573,-0.10607 -4.20301,-1.09546 -4.15425,-4.33103 l -10e-6,-37.74182 c 3.35234,-0.0571 6.96547,-0.42719 6.89429,3.62392 l 0.17678,8.75045 c 0.0872,1.88097 -2.71201,4.94082 -7.42462,4.86136 l 0.17677,6.36396 c 4.69064,-0.0799 7.24327,2.9144 7.24785,5.74524 0.14732,4.38996 0.17825,6.63526 0.17679,10.87177 0.34056,4.27383 0.0341,9.05327 7.95495,9.19238 6.74767,-0.0457 10.89374,-2.22848 11.04854,-7.68978 l -0.17677,-5.74524 h -4.15425 c -0.0811,2.41666 0.12642,5.40735 -2.2981,5.3033 -2.27484,0.004 -2.14382,-2.41048 -2.20971,-5.48008 l 0.0884,-6.98268 c -0.17757,-3.78905 -2.29381,-6.13867 -5.03813,-7.51301 3.26278,-1.50107 6.54923,-5.01896 6.8059,-8.30851 l -0.0884,-10.34143 c 0.12252,-4.70261 -3.62951,-9.85089 -8.57366,-10.07628 l -26.69329,-0.17677 -0.0884,7.77817 c 2.33387,0.0386 4.79446,1.07395 4.68457,3.97748 l 0.0884,11.04854 c -0.0618,1.75012 -2.10079,3.94732 -4.24264,4.77298 2.35225,1.14753 4.06764,3.00761 4.06586,4.86136 l 0.0884,12.90469 c 0.17014,2.67923 -1.90934,3.50698 -4.33103,3.35876 z"
       id="path17"
       sodipodi:nodetypes="ccccccccccccccccccccccccccccccc"
       inkscape:transform-center-x="-88.250642"
       inkscape:transform-center-y="-15.77685" />
    <path
       style="fill:#ff7f2a;stroke:none;stroke-width:1px;stroke-linecap:butt;stroke-linejoin:miter;stroke-opacity:1"
       d="m 189.73896,469.78553 c 7.99406,2.72617 15.6969,2.82597 20.75,0.25 16.68865,10.70143 43.23221,20.75531 80.125,21.5 32.74435,-0.10029 63.19659,-6.07689 90.625,-22.125 4.125,2.73248 10.5,2.658 17.5,-0.25 -21.2029,15.54348 -49.09797,32.1479 -107.875,32.625 -44.11829,-0.30311 -76.87727,-15.10616 -101.125,-32 z"
       id="path18"
       sodipodi:nodetypes="ccccccc"
       inkscape:transform-center-x="-4.8061965"
       inkscape:transform-center-y="28.94769" />
    <path
       style="display:inline;fill:#ff7f2a;stroke:none;stroke-width:1px;stroke-linecap:butt;stroke-linejoin:miter;stroke-opacity:1"
       d="m 524.25,420.5 -59.75,2.25 -10.5,6 58.75,1 z"
       id="path12230-3" />
    <path
       style="display:inline;fill:#ff7f2a;stroke:none;stroke-width:1px;stroke-linecap:butt;stroke-linejoin:miter;stroke-opacity:1"
       d="M 505.25,282.75 499,277.5 328,267 l 28.5,7.75 z"
       id="path2-6" />
    <path
       style="display:inline;fill:#d3bc5f;stroke:none;stroke-width:1px;stroke-linecap:butt;stroke-linejoin:miter;stroke-opacity:1"
       d="m 198.875,197.5 c -34.54237,1.5623 -74.59204,8.98957 -74.875,26.625 5.93601,15.94647 20.33641,19.05985 36.5,19.5 43.81588,-0.23789 62.72078,-24.35915 84.875,-45.875 -11.52689,1.95299 -23.15999,4.54329 -34.375,4.625 -5.87174,-0.0237 -8.81548,-2.60937 -12.125,-4.875 z"
       id="path24"
       sodipodi:nodetypes="cccccc" />
    <path
       style="fill:#ff7f2a;stroke:none;stroke-width:1px;stroke-linecap:butt;stroke-linejoin:miter;stroke-opacity:1"
       d="m 267.24217,412.11067 -10e-6,6.40815 c 2.09943,0.13411 3.65096,0.84833 3.75651,3.0936 v 14.05375 c 0.005,1.58919 -1.18023,2.56077 -3.0494,3.44714 1.87861,0.80074 2.94929,1.82445 3.00521,3.49134 l -0.0625,16.02287 c 0.0142,2.37096 -1.93114,3.65049 -3.84489,3.62393 v 6.0546 l 14.80505,0.0442 -0.0442,-6.40817 c -1.77603,-0.11589 -3.26467,-1.53732 -3.31456,-3.35875 l 0.54863,-29.81146 12.91987,39.64087 12.10161,0.0549 0.52276,-24.62558 c -0.004,-2.52326 2.02747,-3.32001 4.02166,-3.84489 -1.91927,-0.56246 -3.59778,-2.01642 -3.66811,-3.8007 l -0.0442,-13.43502 c 0.031,-1.47157 2.2283,-3.56114 4.64038,-3.44715 l -0.0884,-7.20365 -16.97056,-0.0442 1e-5,7.07106 c 2.23138,0.10715 4.45644,1.60045 4.46361,3.57973 l -0.48613,27.40039 -12.77213,-38.00699 c -5.84836,-0.0737 -10.59186,0.0737 -16.44021,2e-5 z"
       id="path19"
       sodipodi:nodetypes="ccccccccccccccccccccccccccc"
       inkscape:transform-center-x="1.1412285"
       inkscape:transform-center-y="-16.258295" />
    <path
       style="display:inline;fill:#d3bc5f;stroke:none;stroke-width:1px;stroke-linecap:butt;stroke-linejoin:miter;stroke-opacity:1"
       d="m 428.375,181.375 c -5.57395,-5.58717 -14.71091,-6.4432 -21.5,-6.125 -53.35408,0.28676 -135.30777,39.68724 -203.5,60.25 30.16667,-22.27475 61.45833,-50.12975 93.875,-73.25 33.15055,-23.25464 70.87084,-45.1709 120.14645,-45.06066 18.59964,0.0302 42.32014,9.081 42.47855,22.93566 0.10219,14.36837 -14.14231,31.62813 -31.5,41.25 z"
       id="path25"
       sodipodi:nodetypes="ccccccc" />
    <path
       style="fill:#ff7f2a;stroke:none;stroke-width:1px;stroke-linecap:butt;stroke-linejoin:miter;stroke-opacity:1"
       d="m 223.57833,411.62453 -1e-5,7.77817 c 2.11726,0.17835 4.03321,0.95041 4.02167,3.27038 l -0.0473,13.32963 c -0.031,2.33372 -1.34706,3.16395 -3.4882,3.99448 2.02078,0.86856 3.60353,1.90698 3.62392,3.62392 l -0.49816,13.97517 c 0.24555,6.26418 4.46638,11.40484 9.604,11.33515 l 12.75917,-0.1935 c 4.54934,0.026 8.98317,-6.10108 9.01025,-10.55391 0.0241,-4.3705 0.11489,-10.05778 0.0786,-15.86792 0.0787,-2.00332 1.24859,-2.39432 3.03369,-2.96416 -1.68628,-0.61756 -2.98547,-1.61447 -2.96047,-3.3079 l 0.025,-13.51621 c -0.003,-1.98208 1.61061,-3.38094 3.86136,-3.39001 -0.0233,-2.64947 -0.0463,-5.61252 -0.0376,-7.52715 -2.15688,-0.0143 -11.75825,0.162 -17.1343,0.0949 l 0.1875,7.49471 c 1.57809,-0.007 3.24096,1.4254 3.31012,3.46231 l 0.1036,14.13233 c 0.0733,1.53027 -1.53849,2.19998 -2.84359,2.70879 1.299,0.40841 2.87085,0.79453 2.94898,2.50521 l 0.16513,13.97792 c 0.0675,2.26124 -1.69643,4.0504 -5.29257,3.99172 -3.93748,-0.0368 -5.00876,-1.91529 -5.00689,-3.89445 l 0.0732,-13.09664 c -0.0916,-1.9423 1.25155,-2.56463 3.6587,-3.54626 -2.36431,-0.7318 -4.15704,-1.85991 -4.02925,-3.89537 l 0.16475,-12.96091 c 0.0124,-2.47338 1.74942,-3.44235 3.57973,-3.35876 l 0.0442,-7.5572 z"
       id="path20"
       sodipodi:nodetypes="cccccccccccccccccccccccccccccccc"
       inkscape:transform-center-x="46.342678"
       inkscape:transform-center-y="-16.254354" />
    <path
       style="fill:#ffeeaa;stroke:none;stroke-width:1px;stroke-linecap:butt;stroke-linejoin:miter;stroke-opacity:1"
       d="m 187.3833,172.71083 c -9.69764,-3.05936 -11.97709,-5.41962 -27.04684,-5.3033 -19.78832,-0.12056 -44.29188,15.55996 -44.37095,39.77476 0.28024,22.90767 19.19469,39.05254 46.3155,39.24442 16.34772,-0.22924 39.20035,-3.03714 75.66042,-34.29468 26.54093,-23.23738 52.69589,-45.22058 82.20116,-64.08155 30.19478,-16.53864 55.84505,-29.90286 96.52008,-29.96365 18.89715,0.43021 37.16663,8.52835 42.5148,18.208 -4.49346,-16.73618 -29.65593,-21.15073 -42.24963,-21.30159 -44.50796,-0.0426 -66.44118,11.32159 -96.96202,28.72621 -29.3525,17.76295 -55.44798,40.22024 -81.31728,62.75573 -39.40462,33.52164 -60.03574,36.49066 -76.01398,37.03472 -30.05856,-1.47212 -42.85692,-17.26583 -43.48707,-36.68117 -0.19401,-17.48241 18.21307,-37.33858 41.10059,-37.21149 13.76688,0.0667 15.0262,0.70728 27.13522,3.09359 z"
       id="path21"
       sodipodi:nodetypes="ccccccccccccccc" />
    <path
       style="fill:#ff7f2a;stroke:none;stroke-width:1px;stroke-linecap:butt;stroke-linejoin:miter;stroke-opacity:1;fill-opacity:1"
       d="m 202.67449,182.7871 -1.06067,10.42984 c 23.14312,0.6713 33.19636,0.20417 55.68465,-6.62914 l 20.06417,-15.99829 c -25.63262,6.30906 -48.17165,11.58587 -74.68815,12.19759 z"
       id="path22"
       sodipodi:nodetypes="ccccc" />
    <path
       style="fill:#ffe680;stroke:none;stroke-width:1px;stroke-linecap:butt;stroke-linejoin:miter;stroke-opacity:1"
       d="m 201.34866,194.63114 -0.17678,1.94455 c 0.16022,2.65231 7.36221,3.64393 12.63953,3.53553 11.57887,-0.13966 23.24614,-2.7811 34.73662,-5.21491 l 3.0936,-2.74004 c -12.73028,2.34406 -25.50992,5.21045 -37.9186,5.12652 -4.76577,-0.30439 -10.39628,-0.27934 -10.42983,-2.38648 z"
       id="path23"
       sodipodi:nodetypes="cccccccc" />
    <path
       style="fill:#ff7f2a;fill-opacity:1;stroke:none;stroke-width:1px;stroke-linecap:butt;stroke-linejoin:miter;stroke-opacity:1"
       d="m 348.8125,295.6875 0.0625,8.9375 c 2.24595,0.11204 4.20243,0.70232 3.75,4 l -4.375,27.0625 c -0.41859,2.51648 -2.54455,3.04556 -5.125,3.625 2.09193,1.2386 4.26247,2.9733 3.75,5.4375 l -3.125,25.125 c -0.73105,5.12164 -4.33797,5.81294 -7.25,5.875 l -0.125,10.625 21.25,0.25 0.3125,-10.3125 c -4.69958,-0.14488 -4.5022,-2.15053 -4,-5.8125 l 1.1875,-6.875 14.3125,0.0625 L 368.5,351.5 l -11.6875,-0.0625 5.4375,-37 8.0625,58 c 0.29114,2.3469 -2.97739,3.79622 -5.1875,3.8125 l -0.25,10.5 23.9375,0.25 -0.1875,-10.875 c -2.77292,-0.0149 -4.93903,-1.71109 -5.25,-5.875 L 380.5,344.375 c -0.21869,-1.80517 -0.44546,-3.84616 4.4375,-5.875 -3.40922,-0.57679 -5.76273,-0.69815 -6.0625,-3.4375 l -3.75,-25.9375 c -0.8299,-4.68159 1.76265,-5.16844 4.125,-5.1875 l -0.125,-8.25 z"
       id="path46"
       sodipodi:nodetypes="cccccccccccccccccccccccccccccc" />
    <path
       style="fill:#ff7f2a;stroke:none;stroke-width:1px;stroke-linecap:butt;stroke-linejoin:miter;stroke-opacity:1"
       d="m 393.52773,295.84597 0.0379,8.05048 c 1.85231,-0.0422 4.5734,1.86591 4.55936,4.47855 l -0.0884,26.61612 c -0.11248,2.44311 -2.39992,2.81544 -4.53661,3.66919 2.21601,0.62678 4.38154,1.13039 4.28791,4.53661 l -0.0682,28.15165 c -0.1269,3.8924 -1.98941,5.20877 -4.21967,5.18934 l -0.11742,10.58081 20.16161,0.16161 0.43436,-10.73483 c -3.33981,-0.0542 -4.2885,-1.91811 -4.30936,-5.20581 L 410.625,325.375 426.75,387.48614 441.39017,387.63258 441.25,344.375 c 0.11945,-2.07913 2.36416,-2.7178 4.75,-3.625 -2.424,-0.67036 -4.51582,-1.26906 -4.5,-4.25 l 0.25,-24.375 c -0.004,-3.6383 1.34892,-5.36512 3.86742,-5.43696 l 0.25758,-10.26126 -20.78033,0.0594 0.14016,9.85853 c 2.45149,-0.0302 4.83289,1.52228 4.84467,5.70083 l -0.375,41.64406 c -0.0167,1.85524 -14.43933,-57.57214 -14.43933,-57.57214 -3.87002,-0.002 -14.58002,-0.13677 -21.73744,-0.27145 z"
       id="path47"
       sodipodi:nodetypes="ccccccccccccccccccccccccscc" />
    <path
       sodipodi:type="star"
       style="display:inline;fill:#ffe680;fill-opacity:1;fill-rule:evenodd;stroke:none;stroke-width:2;stroke-dasharray:none;stroke-opacity:1"
       id="path15-3-2"
       inkscape:flatsided="false"
       sodipodi:sides="5"
       sodipodi:cx="535.98694"
       sodipodi:cy="226.27417"
       sodipodi:r1="11.879604"
       sodipodi:r2="5.0629239"
       sodipodi:arg1="0.93324753"
       sodipodi:arg2="1.5086639"
       inkscape:rounded="0"
       inkscape:randomized="0"
       d="m 543.05801,235.82011 -6.7567,-4.49279 -7.20802,4.62169 2.18496,-7.81435 -6.62289,-5.42705 8.10708,-0.33675 3.11485,-7.97579 2.82549,7.60623 8.54797,0.49774 -6.36083,5.03766 z"
       inkscape:transform-center-x="-0.39991283"
       inkscape:transform-center-y="-1.8202269"
       transform="matrix(1.9310053,0,0,1.9677881,-642.85597,-355.56174)" />
    <path
       sodipodi:type="star"
       style="display:inline;fill:#ffe680;fill-opacity:1;fill-rule:evenodd;stroke:none;stroke-width:2;stroke-dasharray:none;stroke-opacity:1"
       id="path15-3-5"
       inkscape:flatsided="false"
       sodipodi:sides="5"
       sodipodi:cx="535.98694"
       sodipodi:cy="226.27417"
       sodipodi:r1="11.879604"
       sodipodi:r2="5.0629239"
       sodipodi:arg1="0.93324753"
       sodipodi:arg2="1.5086639"
       inkscape:rounded="0"
       inkscape:randomized="0"
       d="m 543.05801,235.82011 -6.7567,-4.49279 -7.20802,4.62169 2.18496,-7.81435 -6.62289,-5.42705 8.10708,-0.33675 3.11485,-7.97579 2.82549,7.60623 8.54797,0.49774 -6.36083,5.03766 z"
       inkscape:transform-center-x="-0.39991283"
       inkscape:transform-center-y="-1.8202269"
       transform="matrix(1.9310053,0,0,1.9677881,-866.23865,-345.05564)" />
    <path
       id="path12229-2"
       style="display:inline;fill:#ff7f2a;stroke:none;stroke-width:1px;stroke-linecap:butt;stroke-linejoin:miter;stroke-opacity:1"
       d="m 539.12162,296.15909 -42.97525,-0.028 -0.20374,12.86491 c 3.50358,-0.1181 5.46045,1.0726 4.63899,4.61436 l -0.0482,22.5055 c -0.17907,2.91317 -1.48644,3.79825 -4.25165,5.14797 2.91865,1.82712 4.16294,2.00546 3.75816,4.84298 l -0.14581,26.51343 c 0.16009,2.41179 -1.22329,3.82213 -4.09602,3.89227 l 0.18337,12.24614 40.6402,0.62699 0.55678,-27.98497 -9.4939,-0.36611 -0.0423,12.00252 c -0.64491,2.39102 -2.06848,4.41298 -6.86978,4.83412 -3.24372,0.30649 -6.00606,-0.72804 -6.06438,-4.06574 l 0.53474,-25.57774 c 2.6261,0.0766 7.24806,-1.03352 6.66275,3.66337 l -0.0684,4.57196 6.45684,0.085 0.92582,-27.73568 -6.24815,-0.15223 -0.11265,4.62363 c 0.0138,2.86734 -4.18265,2.93428 -7.31483,2.5726 l 0.89842,-26.61101 8.99124,0.46913 c 1.39138,0.96785 3.01106,0.41183 3.88312,4.84602 l 2.7e-4,10.25305 9.24726,0.22529 z"
       sodipodi:nodetypes="cccccccccccccccccccccccccccccc" />
    <path
       style="fill:#ff7f2a;stroke:none;stroke-width:1px;stroke-linecap:butt;stroke-linejoin:miter;stroke-opacity:1"
       d="m 313.42508,412.33164 v 19.35705 l 7.11526,-0.0884 0.0442,-9.19239 c 0.13073,-1.68804 2.68934,-3.13497 6.36396,-2.82843 l -0.17678,17.67767 c 0.0337,2.09506 -1.56809,2.65409 -3.62392,3.27037 1.96731,0.61446 3.45296,1.62504 3.44715,3.22618 l 0.0884,13.96535 c 0.0803,3.03083 -2.61527,3.63634 -5.21491,3.66813 -0.0884,2.23917 -0.13305,3.95941 -0.0884,6.62912 h 21.34579 l -10e-6,-6.8059 c -2.72211,-0.003 -4.39788,-0.6692 -4.5078,-3.40296 l 0.0442,-14.80504 c 0.0374,-1.64002 1.74047,-2.14082 3.27036,-2.74004 -1.59524,-0.71093 -3.0274,-0.88749 -3.18198,-3.00521 l -0.0884,-17.85444 c 3.20764,-0.0729 6.03889,1.61831 6.01041,3.8007 l 0.22097,8.22011 h 7.38042 l -0.0884,-19.09188 z"
       id="path48"
       sodipodi:nodetypes="ccccccccccccccccccccccc"
       inkscape:transform-center-x="-43.216777"
       inkscape:transform-center-y="-16.35138" />
    <path
       style="fill:#ff7f2a;stroke:none;stroke-width:1px;stroke-linecap:butt;stroke-linejoin:miter;stroke-opacity:1"
       d="m 395.69705,412.69522 0.16877,7.02006 c 2.16998,-0.0744 3.52194,-0.0374 4.78321,3.73871 l 5.80336,12.95137 c 0.98935,2.31952 -0.081,3.356 -2.27603,4.95909 2.72766,-0.37763 4.20904,-0.54342 4.82736,0.88454 l 2.24317,6.48587 -0.18673,8.53635 c 0.081,2.93824 -3.10311,4.71393 -5.81705,4.75932 l 0.0358,6.35345 19.55112,0.15216 0.0266,-6.3273 c -2.82194,0.1154 -5.79826,-1.69343 -5.86608,-5.05521 l -0.18228,-8.47096 2.48564,-6.17496 c 0.79647,-1.90406 1.5175,-1.65641 4.15634,-1.54767 -2.07889,-1.5212 -3.06404,-1.71953 -1.96041,-4.50719 l 5.02274,-12.70956 c 0.98886,-2.00666 2.68282,-4.0954 5.81614,-4.10583 l 0.19931,-6.42568 -16.98287,-0.0972 0.1757,6.42726 c 1.63365,0.0568 5.43468,-0.10624 3.07092,4.35023 l -5.89198,13.45071 -4.8531,-13.25652 c -1.61961,-2.61092 0.68827,-4.34362 3.37118,-4.4482 l -0.0131,-6.67658 z"
       id="path49"
       sodipodi:nodetypes="cccccccccccccccccccccccccccc"
       inkscape:transform-center-x="-125.67978"
       inkscape:transform-center-y="-15.90966" />
    <path
       style="fill:#ff7f2a;stroke:none;stroke-width:1px;stroke-linecap:butt;stroke-linejoin:miter;stroke-opacity:1"
       d="m 177.74897,433.72161 -0.35355,-21.9203 -7.51301,-0.0884 0.17678,4.33103 c -1.46324,-3.37196 -4.0248,-4.27775 -8.30851,-3.88908 -10.5489,-0.0161 -17.27117,16.02902 -17.4125,26.33972 -0.0739,15.00471 5.76111,30.14657 17.4125,30.22882 4.87297,-0.0768 8.26617,-0.30751 9.36917,-4.15426 l 0.0884,4.06586 6.8059,-0.0884 0.0884,-19.00349 -7.42462,-0.0884 0.0884,6.0988 c 0.0474,3.74792 -2.88496,5.3538 -6.0988,5.3033 -3.39631,0.13923 -5.17217,-1.53686 -5.39169,-4.68458 -0.0427,-3.85483 -0.0884,-11.49048 -0.0884,-11.49048 -0.16671,-2.69441 1.99576,-3.2182 3.88909,-4.24265 -1.78993,-0.75306 -4.09883,-1.03419 -4.15425,-4.41942 l 0.17678,-11.40209 c 0.004,-3.29689 2.40509,-4.99379 5.48007,-4.94975 3.36068,-0.0168 5.61823,1.32117 5.74525,4.33103 l 0.17677,9.8111 z"
       id="path50"
       sodipodi:nodetypes="ccccccccccccccccccccccc"
       inkscape:transform-center-x="128.21275"
       inkscape:transform-center-y="-16.307185" />
  </g>
</svg>
